<?xml version="1.0" encoding="UTF-8" standalone="no"?>

<svg
   xmlns:dc="http://purl.org/dc/elements/1.1/"
   xmlns:cc="http://creativecommons.org/ns#"
   xmlns:svg="http://www.w3.org/2000/svg"
   xmlns="http://www.w3.org/2000/svg"
   version="1.1"
   width="729.92126"
   height="306.46329"
   id="svg8734">
  <defs
     id="defs8736" />
  <g
     transform="translate(-183.50362,-150.09871)"
     id="layer1">
    <g
       transform="matrix(4.9500838,0,0,4.9500838,-766.84375,-1761.4688)"
       id="g9596">
      <path
         d="m 261.30554,410.88464 c 0,-6.82125 -3.63875,-11.71125 -10.00625,-11.71125 -3.525,0 -5.96875,1.64875 -7.335,4.15 l 0,-0.455 c 0,-2.16125 -1.4775,-3.4675 -3.41125,-3.4675 -1.9325,0 -3.41,1.30625 -3.41,3.4675 l 0,18.93125 c 0,1.875 1.535,3.41 3.41,3.41 1.8775,0 3.41125,-1.535 3.41125,-3.41 l 0,-10.57375 c 0,-3.01375 1.53625,-5.9125 5.34375,-5.9125 3.52625,0 5.175,2.615 5.175,5.9125 l 0,10.57375 c 0,1.875 1.535,3.41 3.4125,3.41 1.875,0 3.41,-1.535 3.41,-3.41 l 0,-10.915 z"
         id="path5821"
         style="fill:#231f20;fill-opacity:1;fill-rule:nonzero;stroke:none" />
      <path
         d="m 284.33129,417.59214 c 0,-5.05875 -3.8675,-6.7075 -9.26625,-8.18625 -3.64,-0.96625 -4.72,-1.4775 -4.72,-2.89875 0,-1.365 1.42125,-1.8775 3.525,-1.8775 1.42,0 2.67125,0.285 4.20625,0.91 1.08,0.45625 2.10375,1.08 3.0125,1.08 1.8775,0 2.6175,-1.08 2.6175,-2.50125 0,-1.53375 -1.47875,-2.7275 -3.46875,-3.6375 -1.93375,-0.91 -4.0375,-1.30875 -6.19625,-1.30875 -6.71,0 -10.1775,3.24125 -10.1775,7.39125 0,3.98 2.10375,6.8225 9.32375,8.755 3.35375,0.91 4.6625,1.47875 4.6625,2.8425 0,1.30875 -1.42125,2.0475 -3.5825,2.0475 -2.3875,0 -4.26375,-0.9675 -5.4575,-1.70625 -0.79625,-0.51125 -1.535,-0.96625 -2.6725,-0.96625 -1.365,0 -2.5,0.91 -2.5,2.2175 0,1.08 0.39625,2.10375 1.4775,2.89875 2.16,1.5925 5.45625,2.55875 8.9825,2.55875 6.42375,0 10.23375,-3.06875 10.23375,-7.61875"
         id="path5825"
         style="fill:#231f20;fill-opacity:1;fill-rule:nonzero;stroke:none" />
      <path
         d="m 207.09604,425.21139 c 3.9225,0 6.425,-1.08 8.3,-2.275 1.19375,-0.7375 2.44625,-1.81875 2.44625,-3.41125 0,-1.42 -1.02375,-2.5 -2.73,-2.5 -1.0225,0 -1.70625,0.51125 -2.50125,1.13625 -1.3075,1.0225 -3.06875,1.64875 -5.23,1.64875 -3.9225,0 -5.8,-2.445 -6.14,-5.40125 l 15.1225,0 c 1.7625,0 2.44375,-1.13625 2.44375,-2.21625 0,-7.44875 -4.7175,-13.02 -11.825,-13.02 -7.4475,0 -12.84875,5.515 -12.84875,13.02 0,7.10625 4.43375,13.01875 12.9625,13.01875 m -0.11375,-20.58125 c 3.01375,0 4.83125,2.33125 5.34375,4.94625 l -10.97125,0 c 0.34,-2.89875 2.50125,-4.94625 5.6275,-4.94625"
         id="path5829"
         style="fill:#231f20;fill-opacity:1;fill-rule:nonzero;stroke:none" />
      <path
         d="m 207.09604,425.21139 c 3.9225,0 6.425,-1.08 8.3,-2.275 1.19375,-0.7375 2.44625,-1.81875 2.44625,-3.41125 0,-1.42 -1.02375,-2.5 -2.73,-2.5 -1.0225,0 -1.70625,0.51125 -2.50125,1.13625 -1.3075,1.0225 -3.06875,1.64875 -5.23,1.64875 -3.9225,0 -5.8,-2.445 -6.14,-5.40125 l 15.1225,0 c 1.7625,0 2.44375,-1.13625 2.44375,-2.21625 0,-7.44875 -4.7175,-13.02 -11.825,-13.02 -7.4475,0 -12.84875,5.515 -12.84875,13.02 0,7.10625 4.43375,13.01875 12.9625,13.01875 m -0.11375,-20.58125 c 3.01375,0 4.83125,2.33125 5.34375,4.94625 l -10.97125,0 c 0.34,-2.89875 2.50125,-4.94625 5.6275,-4.94625"
         id="path5833"
         style="fill:#231f20;fill-opacity:1;fill-rule:nonzero;stroke:none" />
      <path
         d="m 229.89404,388.31614 c -2.355,0 -4.265,1.91 -4.265,4.265 0,2.35375 1.91,4.2625 4.265,4.2625 2.35375,0 4.26375,-1.90875 4.26375,-4.2625 0,-2.355 -1.91,-4.265 -4.26375,-4.265"
         id="path5837"
         style="fill:#e85d0d;fill-opacity:1;fill-rule:nonzero;stroke:none" />
      <path
         d="m 233.30517,402.65089 c 0,-2.21875 -1.53625,-3.46875 -3.41125,-3.46875 -0.3425,0 -0.79625,0.11375 -1.13625,0.2275 l -6.88,2.055 c -1.47875,0.45625 -2.2175,1.47875 -2.2175,2.9575 0,1.87625 1.59125,3.185 3.24,3.185 0.2275,0 0.455,-0.0575 0.68375,-0.115 l 9.72125,-2.92 0,-1.92125 z"
         id="path5841"
         style="fill:#e85d0d;fill-opacity:1;fill-rule:nonzero;stroke:none" />
      <path
         d="m 226.48166,408.26139 0,13.5375 c 0,1.87625 1.5925,3.41125 3.4125,3.41125 1.875,0 3.41125,-1.535 3.41125,-3.41125 l 0,-15.59 -6.82375,2.0525 z"
         id="path5845"
         style="fill:#00a9d4;fill-opacity:1;fill-rule:nonzero;stroke:none" />
      <path
         d="m 246.21254,433.80577 c -2.4975,0 -4.21875,2.025 -4.21875,4.3325 0,2.28875 1.6275,4.33125 4.33125,4.33125 1.495,0 2.72375,-0.69875 3.3675,-1.58875 0.0763,-0.11375 0.11375,-0.2075 0.11375,-0.33875 0,-0.2475 -0.17,-0.4725 -0.4725,-0.4725 -0.20875,0 -0.34,0.13 -0.43625,0.24375 -0.68,0.81375 -1.5125,1.19125 -2.5725,1.19125 -1.985,0 -3.12,-1.475 -3.1775,-2.98875 l 6.56375,0 c 0.24625,0 0.47375,-0.2075 0.47375,-0.4725 0,-2.42125 -1.645,-4.2375 -3.9725,-4.2375 m -3.0275,3.765 c 0.1525,-1.55125 1.3625,-2.81875 3.0275,-2.81875 1.62625,0 2.78125,1.23125 2.93125,2.81875 l -5.95875,0 z m -3.46375,-6.75375 c -0.3975,0 -0.71875,0.32375 -0.71875,0.72 0,0.3975 0.32125,0.71875 0.71875,0.71875 0.3975,0 0.71875,-0.32125 0.71875,-0.71875 0,-0.39625 -0.32125,-0.72 -0.71875,-0.72 m -3.43,3.06375 c -0.32,0 -0.56625,0.2475 -0.56625,0.57 l 0,1.09625 c -0.49125,-0.8125 -1.64625,-1.74125 -3.33,-1.74125 -2.3075,0 -4.19875,1.64625 -4.19875,4.2 0,2.55375 1.89125,4.2 4.19875,4.2 1.34375,0 2.6675,-0.6625 3.33,-1.74 l 0,1.19125 c 0,1.92875 -0.87125,3.3475 -3.21625,3.3475 -1.09625,0 -2.005,-0.26375 -2.78,-0.68 -0.15125,-0.0763 -0.3225,-0.15125 -0.4925,-0.15125 -0.245,0 -0.435,0.15125 -0.435,0.41625 0,0.24625 0.17,0.39625 0.34125,0.49125 0.7375,0.4525 1.89125,0.85125 3.36625,0.85125 3.02625,0 4.35125,-1.79875 4.35125,-4.35125 l 0,-7.13 c 0,-0.3225 -0.2475,-0.57 -0.56875,-0.57 m -3.7825,7.3975 c -1.89125,0 -3.19625,-1.285 -3.19625,-3.2725 0,-1.98625 1.305,-3.27125 3.19625,-3.27125 1.81625,0 3.21625,1.49375 3.21625,3.27125 0,1.77875 -1.4,3.2725 -3.21625,3.2725 m -14.755,-7.4725 c -2.49625,0 -4.2175,2.025 -4.2175,4.3325 0,2.28875 1.62625,4.33125 4.33125,4.33125 1.495,0 2.72375,-0.69875 3.36625,-1.58875 0.0775,-0.11375 0.115,-0.2075 0.115,-0.33875 0,-0.2475 -0.17125,-0.4725 -0.47375,-0.4725 -0.2075,0 -0.34,0.13 -0.435,0.24375 -0.68125,0.81375 -1.5125,1.19125 -2.5725,1.19125 -1.98625,0 -3.12125,-1.475 -3.17875,-2.98875 l 6.565,0 c 0.24625,0 0.4725,-0.2075 0.4725,-0.4725 0,-2.42125 -1.64625,-4.2375 -3.9725,-4.2375 m -3.02625,3.765 c 0.15125,-1.55125 1.3625,-2.81875 3.02625,-2.81875 1.62625,0 2.78125,1.23125 2.9325,2.81875 l -5.95875,0 z m -6.40875,-3.765 c -1.38,0 -2.4775,0.58625 -3.0825,1.6275 l 0,-0.9825 c 0,-0.3225 -0.245,-0.57 -0.5675,-0.57 -0.3225,0 -0.5675,0.2475 -0.5675,0.57 l 0,7.375 c 0,0.32375 0.245,0.56875 0.5675,0.56875 0.3225,0 0.5675,-0.245 0.5675,-0.56875 l 0,-3.95125 c 0,-1.855 1.23,-3.0275 2.8375,-3.0275 1.75875,0 2.6475,1.0775 2.6475,2.7825 l 0,4.19625 c 0,0.32375 0.24625,0.56875 0.5675,0.56875 0.32125,0 0.5675,-0.245 0.5675,-0.56875 l 0,-4.21625 c 0,-2.19625 -1.3425,-3.80375 -3.5375,-3.80375 m -9.95625,0 c -2.4975,0 -4.21875,2.025 -4.21875,4.3325 0,2.28875 1.6275,4.33125 4.3325,4.33125 1.49375,0 2.7225,-0.69875 3.36625,-1.58875 0.0762,-0.11375 0.11375,-0.2075 0.11375,-0.33875 0,-0.2475 -0.17,-0.4725 -0.4725,-0.4725 -0.2075,0 -0.34125,0.13 -0.43625,0.24375 -0.68125,0.81375 -1.5125,1.19125 -2.57125,1.19125 -1.98625,0 -3.1225,-1.475 -3.17875,-2.98875 l 6.565,0 c 0.245,0 0.4725,-0.2075 0.4725,-0.4725 0,-2.42125 -1.64625,-4.2375 -3.9725,-4.2375 m -3.0275,3.765 c 0.15125,-1.55125 1.3625,-2.81875 3.0275,-2.81875 1.62625,0 2.78,1.23125 2.93125,2.81875 l -5.95875,0 z m 32.01625,-3.69 c -1.3425,0 -2.36375,0.815 -2.725,1.89375 l 0,-1.32375 c 0,-0.3225 -0.22625,-0.57 -0.56625,-0.57 -0.32125,0 -0.5675,0.2275 -0.5675,0.57 l 0,7.375 c 0,0.30375 0.265,0.56875 0.5675,0.56875 0.32125,0 0.56625,-0.265 0.56625,-0.56875 l 0,-3.27125 c 0,-2.12 1.0975,-3.66875 2.725,-3.66875 0.3025,0 0.5675,-0.17125 0.5675,-0.51125 0,-0.30375 -0.24625,-0.49375 -0.5675,-0.49375 m 12.37,0 c -0.32125,0 -0.56875,0.2475 -0.56875,0.57 l 0,7.375 c 0,0.32375 0.2475,0.56875 0.56875,0.56875 0.32125,0 0.56625,-0.245 0.56625,-0.56875 l 0,-7.375 c 0,-0.3225 -0.245,-0.57 -0.56625,-0.57 m 47.68875,-0.075 c -1.2675,0 -2.15625,0.24625 -2.895,0.625 -0.15,0.0763 -0.2825,0.2275 -0.2825,0.41625 0,0.30375 0.18875,0.4725 0.49125,0.4725 0.115,0 0.20875,-0.0375 0.26625,-0.0575 0.73625,-0.3 1.41875,-0.49125 2.32625,-0.49125 1.85375,0 2.7425,0.81375 2.7425,2.61125 l 0,1.11625 c -0.435,-0.51125 -1.41875,-1.02 -2.64875,-1.02 -2.09875,0 -3.48125,1.00125 -3.48125,2.515 0,1.4175 1.28875,2.47625 3.31125,2.47625 1.155,0 2.175,-0.34 2.81875,-1.05875 l 0,0.415 c 0,0.30375 0.2075,0.56875 0.5675,0.56875 0.36125,0 0.5675,-0.265 0.5675,-0.56875 l 0,-4.4625 c 0,-2.28875 -1.39875,-3.5575 -3.78375,-3.5575 m 0,7.8325 c -1.39875,0 -2.345,-0.625 -2.345,-1.645 0,-1.0025 0.94625,-1.66625 2.42125,-1.66625 1.2875,0 2.5725,0.62625 2.5725,1.66625 0,1.00125 -1.2675,1.645 -2.64875,1.645 m 19.14,-7.8325 c -1.37875,0 -2.4775,0.58625 -3.0825,1.6275 l 0,-5.3725 c 0,-0.3225 -0.245,-0.5675 -0.56875,-0.5675 -0.32,0 -0.56625,0.245 -0.56625,0.5675 l 0,11.765 c 0,0.32375 0.24625,0.56875 0.56625,0.56875 0.32375,0 0.56875,-0.245 0.56875,-0.56875 l 0,-3.95125 c 0,-1.855 1.23,-3.0275 2.8375,-3.0275 1.75875,0 2.64875,1.0775 2.64875,2.7825 l 0,4.19625 c 0,0.32375 0.245,0.56875 0.5675,0.56875 0.32125,0 0.5675,-0.245 0.5675,-0.56875 l 0,-4.21625 c 0,-2.19625 -1.345,-3.80375 -3.53875,-3.80375 m 27.20625,0 c -1.38,0 -2.47625,0.58625 -3.0825,1.6275 l 0,-0.9825 c 0,-0.3225 -0.24625,-0.57 -0.56875,-0.57 -0.32,0 -0.56625,0.2475 -0.56625,0.57 l 0,7.375 c 0,0.32375 0.24625,0.56875 0.56625,0.56875 0.3225,0 0.56875,-0.245 0.56875,-0.56875 l 0,-3.95125 c 0,-1.855 1.22875,-3.0275 2.8375,-3.0275 1.75875,0 2.64875,1.0775 2.64875,2.7825 l 0,4.19625 c 0,0.32375 0.245,0.56875 0.5675,0.56875 0.32125,0 0.5675,-0.245 0.5675,-0.56875 l 0,-4.21625 c 0,-2.19625 -1.34375,-3.80375 -3.53875,-3.80375 m -9.95625,0 c -2.49625,0 -4.2175,2.025 -4.2175,4.3325 0,2.28875 1.625,4.33125 4.33125,4.33125 1.49375,0 2.72375,-0.69875 3.3675,-1.58875 0.075,-0.11375 0.1125,-0.2075 0.1125,-0.33875 0,-0.2475 -0.17,-0.4725 -0.4725,-0.4725 -0.2075,0 -0.34,0.13 -0.435,0.24375 -0.68125,0.81375 -1.5125,1.19125 -2.5725,1.19125 -1.98625,0 -3.12125,-1.475 -3.1775,-2.98875 l 6.56375,0 c 0.245,0 0.4725,-0.2075 0.4725,-0.4725 0,-2.42125 -1.645,-4.2375 -3.9725,-4.2375 m -3.02625,3.765 c 0.15,-1.55125 1.36125,-2.81875 3.02625,-2.81875 1.6275,0 2.78125,1.23125 2.9325,2.81875 l -5.95875,0 z m -5.51,0.075 c -1.77875,-0.51 -2.3075,-0.9075 -2.3075,-1.6825 0,-0.86875 0.90875,-1.22875 2.13625,-1.22875 0.7575,0 1.55375,0.245 2.1575,0.5675 0.17,0.0937 0.30375,0.16875 0.455,0.16875 0.3025,0 0.4725,-0.18875 0.4725,-0.435 0,-0.24625 -0.20875,-0.41625 -0.51125,-0.56625 -0.79375,-0.43625 -1.7025,-0.66375 -2.55375,-0.66375 -1.94875,0 -3.25375,0.72125 -3.25375,2.19375 0,1.1925 0.795,1.9675 3.31125,2.6675 1.21,0.3425 2.175,0.62625 2.175,1.57125 0,0.83125 -0.79625,1.36 -2.12,1.36 -0.925,0 -1.8725,-0.32 -2.58875,-0.88875 -0.115,-0.0925 -0.2475,-0.1675 -0.43625,-0.1675 -0.2475,0 -0.43625,0.1675 -0.43625,0.415 0,0.15 0.0763,0.32125 0.22875,0.435 0.8125,0.68 1.92875,1.0775 3.1775,1.0775 2.09875,0 3.2725,-0.965 3.2725,-2.28875 0,-1.49375 -1.30625,-1.985 -3.17875,-2.535 m -18.05,-2.85625 c 1.11375,0 1.815,0.37875 2.495,1.19375 0.0962,0.1125 0.2075,0.22625 0.39875,0.22625 0.3025,0 0.5475,-0.19 0.5475,-0.4725 0,-0.13375 -0.0375,-0.22875 -0.11375,-0.34125 -0.56625,-0.85125 -1.77875,-1.59 -3.3275,-1.59 -2.48,0 -4.33375,1.85375 -4.33375,4.3325 0,2.47875 1.85375,4.33125 4.33375,4.33125 1.54875,0 2.76125,-0.73625 3.3275,-1.58875 0.0762,-0.11375 0.11375,-0.2075 0.11375,-0.33875 0,-0.285 -0.245,-0.4725 -0.5475,-0.4725 -0.19125,0 -0.3025,0.11125 -0.39875,0.225 -0.68,0.8125 -1.38125,1.19125 -2.495,1.19125 -1.855,0 -3.19875,-1.4925 -3.19875,-3.3475 0,-1.85375 1.34375,-3.34875 3.19875,-3.34875 m -32.15625,-0.98375 c -1.3825,0 -2.47875,0.58625 -3.08375,1.6275 l 0,-0.9825 c 0,-0.3225 -0.24625,-0.57 -0.5675,-0.57 -0.32125,0 -0.5675,0.2475 -0.5675,0.57 l 0,7.375 c 0,0.32375 0.24625,0.56875 0.5675,0.56875 0.32125,0 0.5675,-0.245 0.5675,-0.56875 l 0,-3.95125 c 0,-1.855 1.22875,-3.0275 2.8375,-3.0275 1.75875,0 2.6475,1.0775 2.6475,2.7825 l 0,4.19625 c 0,0.32375 0.24625,0.56875 0.5675,0.56875 0.32125,0 0.5675,-0.245 0.5675,-0.56875 l 0,-4.21625 c 0,-2.19625 -1.3425,-3.80375 -3.53625,-3.80375 m -7.06125,-2.98875 c -0.3975,0 -0.71875,0.32375 -0.71875,0.72 0,0.3975 0.32125,0.71875 0.71875,0.71875 0.39625,0 0.7175,-0.32125 0.7175,-0.71875 0,-0.39625 -0.32125,-0.72 -0.7175,-0.72 m 21.47125,6.82875 c -1.77625,-0.51 -2.30625,-0.9075 -2.30625,-1.6825 0,-0.86875 0.9075,-1.22875 2.13625,-1.22875 0.7575,0 1.5525,0.245 2.1575,0.5675 0.17,0.0937 0.30125,0.16875 0.4525,0.16875 0.30375,0 0.47375,-0.18875 0.47375,-0.435 0,-0.24625 -0.2075,-0.41625 -0.50875,-0.56625 -0.795,-0.43625 -1.70375,-0.66375 -2.55625,-0.66375 -1.94875,0 -3.2525,0.72125 -3.2525,2.19375 0,1.1925 0.79375,1.9675 3.31,2.6675 1.21,0.3425 2.175,0.62625 2.175,1.57125 0,0.83125 -0.79375,1.36 -2.11875,1.36 -0.92625,0 -1.87125,-0.32 -2.59125,-0.88875 -0.11375,-0.0925 -0.24625,-0.1675 -0.435,-0.1675 -0.245,0 -0.435,0.1675 -0.435,0.415 0,0.15 0.0762,0.32125 0.2275,0.435 0.81375,0.68 1.93,1.0775 3.1775,1.0775 2.10125,0 3.2725,-0.965 3.2725,-2.28875 0,-1.49375 -1.30375,-1.985 -3.17875,-2.535 m -21.47125,-3.765 c -0.3225,0 -0.5675,0.2475 -0.5675,0.57 l 0,7.375 c 0,0.32375 0.245,0.56875 0.5675,0.56875 0.32125,0 0.5675,-0.245 0.5675,-0.56875 l 0,-7.375 c 0,-0.3225 -0.24625,-0.57 -0.5675,-0.57"
         id="path5849"
         style="fill:#231f20;fill-opacity:1;fill-rule:nonzero;stroke:none" />
    </g>
  </g>
</svg>
